P1
# This is an example bitmap of the letter "P"
5 5
0 1 1 1 1
0 1 0 0 1
0 1 1 1 1
0 1 0 0 0
0 1 0 0 0
