P1
# This is an example bitmap of the letter "T"
5 4
1 1 1 1 1
0 0 1 0 0
0 0 1 0 0
0 0 1 0 0
